<svg width="48" height="48" viewBox="0 0 48 48" fill="none" xmlns="http://www.w3.org/2000/svg"><path d="M41 29.5H7A2.5 2.5 0 004.5 32v11A2.5 2.5 0 007 45.5h34a2.5 2.5 0 002.5-2.5V32a2.5 2.5 0 00-2.5-2.5z" stroke="#3C4043"/><path d="M6.538 9.02l-3.136 2.268-1.596-2.38 5.628-4.06h2.184V24h-3.08V9.02zm7.11 12.068c.597-.597 1.764-1.773 3.5-3.528 1.755-1.773 2.921-2.977 3.5-3.612.803-.859 1.344-1.55 1.624-2.072.299-.523.448-1.139.448-1.848 0-.728-.28-1.363-.84-1.904-.56-.541-1.316-.812-2.268-.812-.896 0-1.615.261-2.156.784a3.752 3.752 0 00-1.092 1.764l-2.8-1.148c.205-.672.56-1.335 1.064-1.988.523-.653 1.213-1.204 2.072-1.652.859-.448 1.848-.672 2.968-.672 1.213 0 2.287.252 3.22.756.952.485 1.68 1.157 2.184 2.016a5.19 5.19 0 01.784 2.8c0 1.979-1.017 3.985-3.052 6.02-.616.597-1.344 1.316-2.184 2.156-.84.859-1.624 1.643-2.352 2.352l-.56.588.028.112h8.344V24H13.648v-2.912zM32.4 24.16a3.87 3.87 0 01-1.9-.48 3.72 3.72 0 01-1.37-1.34 3.693 3.693 0 01-.51-1.92c0-.707.17-1.343.51-1.91a3.62 3.62 0 011.37-1.34 3.806 3.806 0 011.9-.49c.56 0 1.07.1 1.53.3.467.193.864.47 1.19.83l-.93.91a2.424 2.424 0 00-.8-.57 2.482 2.482 0 00-1.01-.19c-.433 0-.836.103-1.21.31-.366.207-.66.497-.88.87-.213.373-.32.8-.32 1.28s.11.907.33 1.28c.22.373.514.663.88.87.374.207.78.31 1.22.31.66 0 1.21-.197 1.65-.59.134-.127.247-.28.34-.46.1-.187.174-.39.22-.61h-2.24v-1.15h3.51c.047.187.07.397.07.63 0 .473-.073.913-.22 1.32a2.89 2.89 0 01-.65 1.07 3.328 3.328 0 01-1.17.8c-.446.18-.95.27-1.51.27zm4.793-7.32h2.8c.4 0 .767.083 1.1.25.34.167.607.393.8.68.194.287.29.6.29.94 0 .36-.09.673-.27.94a1.72 1.72 0 01-.69.6v.08c.374.133.67.347.89.64.22.287.33.633.33 1.04 0 .393-.106.743-.32 1.05-.206.3-.49.533-.85.7-.353.16-.746.24-1.18.24h-2.9v-7.16zm2.7 2.92c.3 0 .537-.08.71-.24a.825.825 0 00.26-.62.78.78 0 00-.26-.6c-.166-.167-.39-.25-.67-.25h-1.39v1.71h1.35zm.15 3.01c.327 0 .58-.083.76-.25a.873.873 0 00.28-.67.873.873 0 00-.28-.67c-.186-.173-.453-.26-.8-.26h-1.46v1.85h1.5zM13.57 33.84h2.61c.466 0 .88.097 1.24.29.366.193.65.463.85.81.2.34.3.727.3 1.16 0 .46-.147.87-.44 1.23a2.46 2.46 0 01-1.09.77l-.01.07 1.92 2.75V41H17.4l-1.85-2.69h-.63V41h-1.35v-7.16zm2.6 3.23c.306 0 .556-.093.75-.28a.93.93 0 00.3-.71.971.971 0 00-.28-.7c-.18-.193-.43-.29-.75-.29h-1.27v1.98h1.25zm5.738-3.23h1.54l2.69 7.16h-1.49l-.59-1.71h-2.75l-.6 1.71h-1.49l2.69-7.16zm1.71 4.21l-.64-1.8-.26-.86h-.08l-.26.86-.64 1.8h1.88zm3.447-4.21h1.74l1.9 5.03h.08l1.91-5.03h1.74V41h-1.34v-3.53l.08-1.19h-.08L31.275 41h-1.05l-1.83-4.72h-.08l.08 1.19V41h-1.33v-7.16z" fill="#3C4043"/></svg>