<svg width="48" height="48" viewBox="0 0 48 48" fill="none" xmlns="http://www.w3.org/2000/svg"><path d="M19.5 41C29.165 41 37 33.165 37 23.5S29.165 6 19.5 6 2 13.835 2 23.5 9.835 41 19.5 41z" fill="#3C4043" stroke="#3C4043" stroke-width="2"/><path d="M42 27v-6h-6v6h6z" fill="#3C4043"/><path d="M46 24h-6" stroke="#3C4043" stroke-width="2"/><path d="M29 1H11a2 2 0 00-2 2v42a2 2 0 002 2h18a2 2 0 002-2V3a2 2 0 00-2-2z" fill="#fff" stroke="#3C4043" stroke-width="2"/><path d="M21.167 17L16 25.571h3V32l5-8.901h-2.833V17z" fill="#3C4043"/></svg>