<svg width="48" height="48" viewBox="0 0 48 48" fill="none" xmlns="http://www.w3.org/2000/svg"><g clip-path="url(#clip0_44_423391)"><g clip-path="url(#clip1_44_423391)"><path d="M40.87 4.753a2.356 2.356 0 012.353 2.353V40.87a2.356 2.356 0 01-2.353 2.353H7.106a2.356 2.356 0 01-2.353-2.353V7.106a2.356 2.356 0 012.353-2.353H40.87zm0-1.44H7.106a3.793 3.793 0 00-3.793 3.793V40.87a3.793 3.793 0 003.793 3.793H40.87a3.793 3.793 0 003.793-3.793V7.106a3.793 3.793 0 00-3.793-3.793z" fill="#3C4043"/><path d="M8.122 32.084a.486.486 0 11.971 0 .486.486 0 01-.971 0zm1.618 0a.486.486 0 11.972 0 .486.486 0 01-.971 0zm1.62 0a.486.486 0 11.971 0 .486.486 0 01-.971 0zm1.62 0a.486.486 0 11.97 0 .486.486 0 01-.97 0zm1.618 0a.486.486 0 11.972 0 .486.486 0 01-.972 0zm1.62 0a.486.486 0 11.971 0 .486.486 0 01-.971 0zm1.619 0a.486.486 0 11.97 0 .486.486 0 01-.97 0zm1.619 0a.486.486 0 11.97 0 .486.486 0 01-.97 0zm1.619 0a.486.486 0 11.971 0 .486.486 0 01-.971 0zm1.619 0a.486.486 0 11.971 0 .486.486 0 01-.971 0zm1.619 0a.486.486 0 11.972 0 .486.486 0 01-.972 0zm1.619 0a.486.486 0 11.972 0 .486.486 0 01-.972 0zm1.62 0a.486.486 0 11.971 0 .486.486 0 01-.971 0zm1.618 0a.486.486 0 11.972 0 .486.486 0 01-.971 0zm1.62 0a.486.486 0 11.971 0 .486.486 0 01-.971 0zm1.619 0a.486.486 0 11.971 0 .486.486 0 01-.971 0zm1.619 0a.486.486 0 11.972 0 .486.486 0 01-.972 0zm1.619 0a.486.486 0 11.972 0 .486.486 0 01-.972 0zM8.122 33.703a.486.486 0 11.97 0 .486.486 0 01-.97 0zm1.618 0a.486.486 0 11.972 0 .486.486 0 01-.971 0zm1.62 0a.486.486 0 11.971 0 .486.486 0 01-.971 0zm1.62 0a.486.486 0 11.97 0 .486.486 0 01-.97 0zm1.618 0a.486.486 0 11.972 0 .486.486 0 01-.972 0zm1.62 0a.486.486 0 11.97 0 .486.486 0 01-.97 0zm1.619 0a.486.486 0 11.97 0 .486.486 0 01-.97 0zm1.619 0a.486.486 0 11.97 0 .486.486 0 01-.97 0zm1.619 0a.486.486 0 11.971 0 .486.486 0 01-.971 0zm1.619 0a.486.486 0 11.971 0 .486.486 0 01-.971 0zm1.619 0a.486.486 0 11.972 0 .486.486 0 01-.972 0zm1.619 0a.486.486 0 11.972 0 .486.486 0 01-.972 0zm1.62 0a.486.486 0 11.97 0 .486.486 0 01-.97 0zm1.618 0a.486.486 0 11.972 0 .486.486 0 01-.971 0zm1.62 0a.486.486 0 11.971 0 .486.486 0 01-.971 0zm1.619 0a.486.486 0 11.971 0 .486.486 0 01-.971 0zm1.619 0a.486.486 0 11.971 0 .486.486 0 01-.97 0zm1.619 0a.486.486 0 11.972 0 .486.486 0 01-.972 0zM8.122 35.322a.486.486 0 11.97 0 .486.486 0 01-.97 0zm1.618 0a.486.486 0 11.972 0 .486.486 0 01-.971 0zm1.62 0a.486.486 0 11.971 0 .486.486 0 01-.971 0zm1.62 0a.486.486 0 11.97 0 .486.486 0 01-.97 0zm1.618 0a.486.486 0 11.972 0 .486.486 0 01-.972 0zm1.62 0a.486.486 0 11.97 0 .486.486 0 01-.97 0zm1.619 0a.486.486 0 11.97 0 .486.486 0 01-.97 0zm1.619 0a.486.486 0 11.97 0 .486.486 0 01-.97 0zm1.619 0a.486.486 0 11.971 0 .486.486 0 01-.971 0zm1.619 0a.486.486 0 11.971 0 .486.486 0 01-.971 0zm1.619 0a.486.486 0 11.972 0 .486.486 0 01-.972 0zm1.619 0a.486.486 0 11.972 0 .486.486 0 01-.972 0zm1.62 0a.486.486 0 11.97 0 .486.486 0 01-.97 0zm1.618 0a.486.486 0 11.972 0 .486.486 0 01-.971 0zm1.62 0a.486.486 0 11.971 0 .486.486 0 01-.971 0zm1.619 0a.486.486 0 11.971 0 .486.486 0 01-.971 0zm1.619 0a.486.486 0 11.971 0 .486.486 0 01-.97 0zm1.619 0a.486.486 0 11.972 0 .486.486 0 01-.972 0zM8.122 36.941a.486.486 0 11.971 0 .486.486 0 01-.971 0zm1.618 0a.486.486 0 11.972 0 .486.486 0 01-.971 0zm1.62 0a.486.486 0 11.971 0 .486.486 0 01-.971 0zm1.62 0a.486.486 0 11.97 0 .486.486 0 01-.97 0zm1.618 0a.486.486 0 11.972 0 .486.486 0 01-.972 0zm1.62 0a.486.486 0 11.971 0 .486.486 0 01-.971 0zm1.619 0a.486.486 0 11.97 0 .486.486 0 01-.97 0zm1.619 0a.486.486 0 11.97 0 .486.486 0 01-.97 0zm1.619 0a.486.486 0 11.971 0 .486.486 0 01-.971 0zm1.619 0a.486.486 0 11.971 0 .486.486 0 01-.971 0zm1.619 0a.486.486 0 11.972 0 .486.486 0 01-.972 0zm1.619 0a.486.486 0 11.972 0 .486.486 0 01-.972 0zm1.62 0a.486.486 0 11.971 0 .486.486 0 01-.971 0zm1.618 0a.486.486 0 11.972 0 .486.486 0 01-.971 0zm1.62 0a.486.486 0 11.971 0 .486.486 0 01-.971 0zm1.619 0a.486.486 0 11.971 0 .486.486 0 01-.971 0zm1.619 0a.486.486 0 11.972 0 .486.486 0 01-.972 0zm1.619 0a.486.486 0 11.972 0 .486.486 0 01-.972 0zM8.122 17.511a.486.486 0 11.97 0 .486.486 0 01-.97 0zm1.618 0a.486.486 0 11.972 0 .486.486 0 01-.971 0zM8.122 19.13a.486.486 0 11.971 0 .486.486 0 01-.971 0zm1.618 0a.486.486 0 11.972 0 .486.486 0 01-.971 0zm-1.618 1.62a.486.486 0 11.971 0 .486.486 0 01-.971 0zm1.618 0a.486.486 0 11.972 0 .486.486 0 01-.971 0zm-1.618 1.619a.486.486 0 11.97 0 .486.486 0 01-.97 0zm1.618 0a.486.486 0 11.972 0 .486.486 0 01-.971 0zm-1.618 1.619a.486.486 0 11.971 0 .486.486 0 01-.971 0zm1.618 0a.486.486 0 11.972 0 .486.486 0 01-.971 0zm-1.618 1.619a.486.486 0 11.97 0 .486.486 0 01-.97 0zm1.618 0a.486.486 0 11.972 0 .486.486 0 01-.971 0zm-1.618 1.619a.486.486 0 11.971 0 .486.486 0 01-.971 0zm1.618 0a.486.486 0 11.972 0 .486.486 0 01-.971 0zm-1.618 1.619a.486.486 0 11.97 0 .486.486 0 01-.97 0zm1.618 0a.486.486 0 11.972 0 .486.486 0 01-.971 0zm-1.618 1.62a.486.486 0 11.971 0 .486.486 0 01-.971 0zm1.618 0a.486.486 0 11.972 0 .486.486 0 01-.971 0zm27.524-16.192a.486.486 0 11.971 0 .486.486 0 01-.971 0zm1.619 0a.486.486 0 11.971 0 .486.486 0 01-.971 0zm-1.619 1.619a.486.486 0 11.97 0 .486.486 0 01-.97 0zm1.619 0a.486.486 0 11.971 0 .486.486 0 01-.971 0zm-1.617 16.192a.486.486 0 11.971 0 .486.486 0 01-.971 0zm1.619 0a.486.486 0 11.971 0 .486.486 0 01-.971 0zm-1.619 1.619a.486.486 0 11.97 0 .486.486 0 01-.97 0zm1.619 0a.486.486 0 11.97 0 .486.486 0 01-.97 0zm-1.619 1.619a.486.486 0 11.97 0 .486.486 0 01-.97 0zm1.619 0a.486.486 0 11.97 0 .486.486 0 01-.97 0zm-1.619 1.619a.486.486 0 11.971 0 .486.486 0 01-.971 0zm1.619 0a.486.486 0 11.971 0 .486.486 0 01-.971 0zm-1.619-19.43a.486.486 0 11.97 0 .486.486 0 01-.97 0zm1.619 0a.486.486 0 11.97 0 .486.486 0 01-.97 0zm-1.619 1.619a.486.486 0 11.971 0 .486.486 0 01-.971 0zm1.619 0a.486.486 0 11.971 0 .486.486 0 01-.971 0zm-1.619 1.62a.486.486 0 11.971 0 .486.486 0 01-.971 0zm1.619 0a.486.486 0 11.971 0 .486.486 0 01-.971 0zm-1.619 1.619a.486.486 0 11.97 0 .486.486 0 01-.97 0zm1.619 0a.486.486 0 11.97 0 .486.486 0 01-.97 0zm-1.619 1.619a.486.486 0 11.971 0 .486.486 0 01-.971 0zm1.619 0a.486.486 0 11.971 0 .486.486 0 01-.971 0zm-1.619 1.619a.486.486 0 11.97 0 .486.486 0 01-.97 0zm1.619 0a.486.486 0 11.97 0 .486.486 0 01-.97 0zm-1.619 1.619a.486.486 0 11.971 0 .486.486 0 01-.971 0zm1.619 0a.486.486 0 11.971 0 .486.486 0 01-.971 0zm-1.619 1.619a.486.486 0 11.97 0 .486.486 0 01-.97 0zm1.619 0a.486.486 0 11.97 0 .486.486 0 01-.97 0zm-1.619 1.62a.486.486 0 11.971 0 .486.486 0 01-.971 0zm1.619 0a.486.486 0 11.971 0 .486.486 0 01-.971 0zm-1.621-19.43a.486.486 0 11.97 0 .486.486 0 01-.97 0zm1.619 0a.486.486 0 11.971 0 .486.486 0 01-.971 0zm-1.619 1.619a.486.486 0 11.97 0 .486.486 0 01-.97 0zm1.619 0a.486.486 0 11.971 0 .486.486 0 01-.971 0zM8.12 11.035a.486.486 0 11.971 0 .486.486 0 01-.971 0zm1.619 0a.486.486 0 11.971 0 .486.486 0 01-.971 0zm1.619 0a.486.486 0 11.972 0 .486.486 0 01-.972 0zm1.619 0a.486.486 0 11.972 0 .486.486 0 01-.972 0zm1.62 0a.486.486 0 11.97 0 .486.486 0 01-.97 0zm1.619 0a.486.486 0 11.97 0 .486.486 0 01-.97 0zm1.619 0a.486.486 0 11.971 0 .486.486 0 01-.971 0zm1.619 0a.486.486 0 11.971 0 .486.486 0 01-.971 0zm1.619 0a.486.486 0 11.971 0 .486.486 0 01-.971 0zm1.619 0a.486.486 0 11.972 0 .486.486 0 01-.972 0zm1.619 0a.486.486 0 11.972 0 .486.486 0 01-.972 0zm1.619 0a.486.486 0 11.972 0 .486.486 0 01-.971 0zm1.62 0a.486.486 0 11.97 0 .486.486 0 01-.97 0zm1.619 0a.486.486 0 11.971 0 .486.486 0 01-.971 0zm1.619 0a.486.486 0 11.971 0 .486.486 0 01-.971 0zm1.619 0a.486.486 0 11.972 0 .486.486 0 01-.972 0zm1.619 0a.486.486 0 11.972 0 .486.486 0 01-.972 0zm1.619 0a.486.486 0 11.972 0 .486.486 0 01-.971 0zM8.12 12.654a.486.486 0 11.971 0 .486.486 0 01-.971 0zm1.619 0a.486.486 0 11.971 0 .486.486 0 01-.971 0zm1.619 0a.486.486 0 11.972 0 .486.486 0 01-.972 0zm1.619 0a.486.486 0 11.972 0 .486.486 0 01-.972 0zm1.62 0a.486.486 0 11.97 0 .486.486 0 01-.97 0zm1.619 0a.486.486 0 11.97 0 .486.486 0 01-.97 0zm1.619 0a.486.486 0 11.971 0 .486.486 0 01-.971 0zm1.619 0a.486.486 0 11.971 0 .486.486 0 01-.971 0zm1.619 0a.486.486 0 11.971 0 .486.486 0 01-.971 0zm1.619 0a.486.486 0 11.972 0 .486.486 0 01-.972 0zm1.619 0a.486.486 0 11.972 0 .486.486 0 01-.972 0zm1.619 0a.486.486 0 11.972 0 .486.486 0 01-.971 0zm1.62 0a.486.486 0 11.97 0 .486.486 0 01-.97 0zm1.619 0a.486.486 0 11.971 0 .486.486 0 01-.971 0zm1.619 0a.486.486 0 11.971 0 .486.486 0 01-.971 0zm1.619 0a.486.486 0 11.972 0 .486.486 0 01-.972 0zm1.619 0a.486.486 0 11.972 0 .486.486 0 01-.972 0zm1.619 0a.486.486 0 11.972 0 .486.486 0 01-.971 0zM8.12 14.273a.486.486 0 11.971 0 .486.486 0 01-.971 0zm1.619 0a.486.486 0 11.971 0 .486.486 0 01-.971 0zm1.619 0a.486.486 0 11.972 0 .486.486 0 01-.972 0zm1.619 0a.486.486 0 11.972 0 .486.486 0 01-.972 0zm1.62 0a.486.486 0 11.971 0 .486.486 0 01-.971 0zm1.619 0a.486.486 0 11.971 0 .486.486 0 01-.971 0zm1.619 0a.486.486 0 11.971 0 .486.486 0 01-.971 0zm1.619 0a.486.486 0 11.971 0 .486.486 0 01-.971 0zm1.619 0a.486.486 0 11.971 0 .486.486 0 01-.971 0zm1.619 0a.486.486 0 11.972 0 .486.486 0 01-.972 0zm1.619 0a.486.486 0 11.972 0 .486.486 0 01-.972 0zm1.619 0a.486.486 0 11.972 0 .486.486 0 01-.971 0zm1.62 0a.486.486 0 11.971 0 .486.486 0 01-.971 0zm1.619 0a.486.486 0 11.971 0 .486.486 0 01-.971 0zm1.619 0a.486.486 0 11.971 0 .486.486 0 01-.971 0zm1.619 0a.486.486 0 11.972 0 .486.486 0 01-.972 0zm1.619 0a.486.486 0 11.972 0 .486.486 0 01-.972 0zm1.619 0a.486.486 0 11.972 0 .486.486 0 01-.971 0zM8.12 15.892a.486.486 0 11.971 0 .486.486 0 01-.971 0zm1.619 0a.486.486 0 11.971 0 .486.486 0 01-.971 0zm1.619 0a.486.486 0 11.972 0 .486.486 0 01-.972 0zm1.619 0a.486.486 0 11.972 0 .486.486 0 01-.972 0zm1.62 0a.486.486 0 11.97 0 .486.486 0 01-.97 0zm1.619 0a.486.486 0 11.97 0 .486.486 0 01-.97 0zm1.619 0a.486.486 0 11.971 0 .486.486 0 01-.971 0zm1.619 0a.486.486 0 11.971 0 .486.486 0 01-.971 0zm1.619 0a.486.486 0 11.971 0 .486.486 0 01-.971 0zm1.619 0a.486.486 0 11.972 0 .486.486 0 01-.972 0zm1.619 0a.486.486 0 11.972 0 .486.486 0 01-.972 0zm1.619 0a.486.486 0 11.972 0 .486.486 0 01-.971 0zm1.62 0a.486.486 0 11.97 0 .486.486 0 01-.97 0zm1.619 0a.486.486 0 11.971 0 .486.486 0 01-.971 0zm1.619 0a.486.486 0 11.971 0 .486.486 0 01-.971 0zm1.619 0a.486.486 0 11.972 0 .486.486 0 01-.972 0zm1.619 0a.486.486 0 11.972 0 .486.486 0 01-.972 0zm1.619 0a.486.486 0 11.972 0 .486.486 0 01-.971 0zm1.619 22.61a.486.486 0 11.971 0 .486.486 0 01-.971 0zm1.619 0a.486.486 0 11.971 0 .486.486 0 01-.971 0zM37.264 9.474a.486.486 0 11.971 0 .486.486 0 01-.971 0zm1.619 0a.486.486 0 11.971 0 .486.486 0 01-.971 0zM8.12 38.502a.486.486 0 11.971 0 .486.486 0 01-.971 0zm1.619 0a.486.486 0 11.971 0 .486.486 0 01-.971 0zm1.619 0a.486.486 0 11.972 0 .486.486 0 01-.972 0zm1.619 0a.486.486 0 11.972 0 .486.486 0 01-.972 0zm1.62 0a.486.486 0 11.971 0 .486.486 0 01-.971 0zm1.619 0a.486.486 0 11.971 0 .486.486 0 01-.971 0zm1.619 0a.486.486 0 11.971 0 .486.486 0 01-.971 0zm1.619 0a.486.486 0 11.971 0 .486.486 0 01-.971 0zm1.619 0a.486.486 0 11.971 0 .486.486 0 01-.971 0zm1.619 0a.486.486 0 11.972 0 .486.486 0 01-.972 0zm1.619 0a.486.486 0 11.972 0 .486.486 0 01-.972 0zm1.619 0a.486.486 0 11.972 0 .486.486 0 01-.971 0zm1.62 0a.486.486 0 11.971 0 .486.486 0 01-.971 0zm1.619 0a.486.486 0 11.971 0 .486.486 0 01-.971 0zm1.619 0a.486.486 0 11.971 0 .486.486 0 01-.971 0zm1.619 0a.486.486 0 11.972 0 .486.486 0 01-.972 0zm1.619 0a.486.486 0 11.972 0 .486.486 0 01-.972 0zm1.619 0a.486.486 0 11.972 0 .486.486 0 01-.971 0zM8.12 9.474a.486.486 0 11.971 0 .486.486 0 01-.971 0zm1.619 0a.486.486 0 11.971 0 .486.486 0 01-.971 0zm1.619 0a.486.486 0 11.972 0 .486.486 0 01-.972 0zm1.619 0a.486.486 0 11.972 0 .486.486 0 01-.972 0zm1.62 0a.486.486 0 11.97 0 .486.486 0 01-.97 0zm1.619 0a.486.486 0 11.971 0 .486.486 0 01-.971 0zm1.619 0a.486.486 0 11.971 0 .486.486 0 01-.971 0zm1.619 0a.486.486 0 11.971 0 .486.486 0 01-.971 0zm1.619 0a.486.486 0 11.971 0 .486.486 0 01-.971 0zm1.619 0a.486.486 0 11.972 0 .486.486 0 01-.972 0zm1.619 0a.486.486 0 11.972 0 .486.486 0 01-.972 0zm1.619 0a.486.486 0 11.972 0 .486.486 0 01-.971 0zm1.62 0a.486.486 0 11.971 0 .486.486 0 01-.971 0zm1.619 0a.486.486 0 11.971 0 .486.486 0 01-.971 0zm1.619 0a.486.486 0 11.971 0 .486.486 0 01-.971 0zm1.619 0a.486.486 0 11.972 0 .486.486 0 01-.972 0zm1.619 0a.486.486 0 11.972 0 .486.486 0 01-.972 0zm1.619 0a.486.486 0 11.972 0 .486.486 0 01-.971 0z" fill="#9AA0A6"/><path d="M20.292 28.983a5.911 5.911 0 01-2.142-.406 5.543 5.543 0 01-1.722-1.078 4.971 4.971 0 01-1.134-1.652 5.366 5.366 0 01-.406-2.1c0-.756.14-1.451.42-2.086.29-.644.686-1.2 1.19-1.666a5.528 5.528 0 013.794-1.484c.803 0 1.526.14 2.17.42a4.85 4.85 0 011.652 1.162l-1.568 1.736a5.551 5.551 0 00-.616-.504 3.14 3.14 0 00-.77-.392 2.74 2.74 0 00-.994-.168c-.345 0-.69.06-1.036.182a2.86 2.86 0 00-.938.532c-.28.242-.504.55-.672.924-.159.373-.238.821-.238 1.344 0 .523.08.975.238 1.358.168.383.392.704.672.966.29.261.611.457.966.588a3.31 3.31 0 001.078.182c.541 0 .985-.056 1.33-.168.345-.121.616-.27.812-.448a2 2 0 00.448-.518 1.99 1.99 0 00.182-.448H20.25v-2.002h5.04c.028.074.051.22.07.434.019.205.028.36.028.462v-.014c0 .69-.121 1.33-.364 1.918a4.724 4.724 0 01-1.036 1.554 4.7 4.7 0 01-1.61 1.022c-.625.242-1.32.36-2.086.35zm9.333 0a4.176 4.176 0 01-1.512-.28 3.53 3.53 0 01-1.274-.84c-.364-.373-.63-.84-.798-1.4l2.142-.938c.094.373.262.681.504.924.243.242.57.364.98.364.234 0 .434-.037.602-.112a.923.923 0 00.392-.364.983.983 0 00.154-.546c0-.233-.056-.425-.168-.574a1.004 1.004 0 00-.49-.336c-.205-.075-.466-.112-.784-.112h-.924v-2.17h.854c.271 0 .486-.023.644-.07a.754.754 0 00.378-.238.735.735 0 00.14-.462.739.739 0 00-.21-.546c-.13-.15-.35-.224-.658-.224-.196 0-.378.037-.546.112a1.359 1.359 0 00-.42.308c-.112.121-.2.266-.266.434l-2.086-.882c.122-.355.327-.686.616-.994.29-.317.654-.574 1.092-.77.448-.206.971-.308 1.568-.308.635 0 1.195.112 1.68.336.495.224.882.532 1.162.924.28.383.42.816.42 1.302 0 .364-.06.69-.182.98-.112.29-.261.527-.448.714a1.862 1.862 0 01-.63.42v.112c.308.084.579.238.812.462.243.224.43.494.56.812.14.308.21.662.21 1.064 0 .55-.149 1.045-.448 1.484-.298.439-.714.784-1.246 1.036-.522.252-1.129.378-1.82.378z" fill="#3C4043"/></g></g><defs><clipPath id="clip0_44_423391"><path fill="#fff" d="M0 0h48v48H0z"/></clipPath><clipPath id="clip1_44_423391"><path fill="#fff" d="M0 0h48v48H0z"/></clipPath></defs></svg>