<svg width="48" height="48" viewBox="0 0 48 48" fill="none" xmlns="http://www.w3.org/2000/svg"><g clip-path="url(#clip0_44_423393)"><g clip-path="url(#clip1_44_423393)"><path d="M19.742 33.042c.894.894 2.177 1.322 3.85 1.283 1.71-.078 2.955-.72 3.733-1.925l12.6-19.775L20.383 25.4c-1.166.778-1.789 2.022-1.866 3.733-.078 1.711.33 3.014 1.225 3.909zm4.141-27.65c2.217 0 4.53.37 6.942 1.108 2.411.7 4.725 1.925 6.942 3.675l-3.034 2.158a19.078 19.078 0 00-5.658-2.566c-1.983-.584-3.714-.875-5.192-.875-5.444 0-10.091 1.944-13.941 5.833-3.85 3.889-5.775 8.614-5.775 14.175 0 1.75.233 3.52.7 5.308a20.902 20.902 0 002.1 4.959h33.775c.855-1.4 1.536-3.034 2.041-4.9.506-1.867.759-3.695.759-5.484 0-1.633-.253-3.383-.759-5.25-.466-1.905-1.322-3.655-2.566-5.25l2.275-3.033c1.477 2.178 2.586 4.375 3.325 6.592a22.924 22.924 0 011.225 6.591c.077 2.334-.156 4.53-.7 6.592a21.936 21.936 0 01-2.392 5.717c-.467.894-.972 1.439-1.517 1.633-.505.194-1.147.292-1.925.292H7.2a4.623 4.623 0 01-1.983-.467 3.376 3.376 0 01-1.4-1.458 28.058 28.058 0 01-2.334-5.659C.94 33.14.667 31.078.667 28.9c0-3.228.602-6.261 1.808-9.1 1.244-2.878 2.917-5.367 5.017-7.467 2.1-2.139 4.55-3.83 7.35-5.075 2.839-1.244 5.852-1.866 9.041-1.866z" fill="#444746"/></g></g><defs><clipPath id="clip0_44_423393"><path fill="#fff" d="M0 0h48v48H0z"/></clipPath><clipPath id="clip1_44_423393"><path fill="#fff" d="M0 0h48v48H0z"/></clipPath></defs></svg>