<svg width="48" height="48" viewBox="0 0 48 48" fill="none" xmlns="http://www.w3.org/2000/svg"><g clip-path="url(#clip0_44_423394)"><path fill-rule="evenodd" clip-rule="evenodd" d="M42.956 23.752C41.804 31.454 37.299 42.112 24.68 48 12.061 42.112 7.556 31.454 6.404 23.752 6.16 22.126 6 19.582 6 18.546V5.59L24.68 0l18.68 5.59v12.956c0 1.036-.159 3.58-.404 5.206zm-11.623-5.307h.758a2.362 2.362 0 012.357 2.35v11.74a2.36 2.36 0 01-2.354 2.354H18.135a2.36 2.36 0 01-2.354-2.353V20.798a2.36 2.36 0 012.354-2.353h.758v-2.342c0-3.366 2.791-6.103 6.22-6.103 3.43 0 6.22 2.737 6.22 6.103v2.342zm-6.223-6.226c-2.184 0-4 1.742-4 3.882v2.342h8v-2.342c0-2.14-1.816-3.882-4-3.882zm2.833 12.615c0-1.32-1.199-2.389-2.656-2.389s-2.678 1.07-2.678 2.39c0 .881.36 1.653 1.28 2.064v2.657h2.765V26.9c.921-.414 1.289-1.183 1.289-2.065z" fill="#444746"/></g><defs><clipPath id="clip0_44_423394"><path fill="#fff" d="M0 0h48v48H0z"/></clipPath></defs></svg>