<svg width="69" height="30" viewBox="0 0 69 30" fill="none" xmlns="http://www.w3.org/2000/svg"><g clip-path="url(#clip0_39_361524)" fill="#3C4043"><path d="M10.715 29.64c-1.92 0-3.627-.427-5.12-1.28-1.494-.88-2.654-2.053-3.48-3.52a9.534 9.534 0 01-1.24-4.76c0-1.707.32-3.293.96-4.76.666-1.493 1.64-3.16 2.92-5l6.64-9.48 4.04 2.8-5.6 7.92.2.24c.613-.267 1.32-.4 2.12-.4 1.386 0 2.707.387 3.96 1.16 1.28.747 2.307 1.8 3.08 3.16.8 1.36 1.2 2.88 1.2 4.56 0 1.787-.453 3.4-1.36 4.84a9.274 9.274 0 01-3.56 3.32c-1.493.8-3.08 1.2-4.76 1.2zm-.08-4.8c1.226 0 2.293-.427 3.2-1.28.933-.853 1.4-1.933 1.4-3.24 0-1.333-.454-2.427-1.36-3.28-.907-.853-1.987-1.28-3.24-1.28-1.254 0-2.347.44-3.28 1.32-.907.853-1.36 1.933-1.36 3.24 0 1.307.453 2.387 1.36 3.24.933.853 2.026 1.28 3.28 1.28zm17.067 4.4c-.96 0-1.787-.333-2.48-1-.667-.693-1-1.52-1-2.48s.333-1.773 1-2.44c.693-.667 1.52-1 2.48-1s1.773.333 2.44 1c.666.667 1 1.48 1 2.44s-.334 1.787-1 2.48c-.667.667-1.48 1-2.44 1zm8.59-2.04l11.4-20.4-.12-.24h-12.6V1.64h18.64V6.8l-12.92 22.84-4.4-2.44zM57.26.36h4.76V9.4h-4.76V.36zm6.88 0h4.76V9.4h-4.76V.36z"/></g><defs><clipPath id="clip0_39_361524"><path fill="#fff" transform="translate(.875 .36)" d="M0 0h68.025v29.28H0z"/></clipPath></defs></svg>