<svg width="48" height="48" viewBox="0 0 48 48" fill="none" xmlns="http://www.w3.org/2000/svg"><g clip-path="url(#clip0_44_423679)"><g clip-path="url(#clip1_44_423679)"><path d="M48 1H6C3.239 1 1 3.192 1 5.896V48" stroke="#3C4043" stroke-width="2"/><path fill-rule="evenodd" clip-rule="evenodd" d="M48 12H1v14h47V12zM8 15a4 4 0 000 8h18a4 4 0 000-8H8zm29 1.5a1.5 1.5 0 11-3 0 1.5 1.5 0 013 0zM35.5 23a1.5 1.5 0 100-3 1.5 1.5 0 000 3z" fill="#3C4043"/></g></g><defs><clipPath id="clip0_44_423679"><path fill="#fff" d="M0 0h48v48H0z"/></clipPath><clipPath id="clip1_44_423679"><path fill="#fff" d="M0 0h48v48H0z"/></clipPath></defs></svg>